<mxfile host="app.diagrams.net" modified="2022-12-22T14:42:05.971Z" agent="5.0 (Windows NT 10.0; Win64; x64) AppleWebKit/537.36 (KHTML, like Gecko) Chrome/108.0.0.0 Safari/537.36" etag="yjE4pfAxJygoZbZoIG2b" version="20.7.4" type="github">
  <diagram name="Page-1" id="03018318-947c-dd8e-b7a3-06fadd420f32">
    <mxGraphModel dx="692" dy="808" grid="1" gridSize="10" guides="1" tooltips="1" connect="1" arrows="1" fold="1" page="1" pageScale="1" pageWidth="1100" pageHeight="850" background="none" math="0" shadow="0">
      <root>
        <mxCell id="0" />
        <mxCell id="1" parent="0" />
        <mxCell id="w6ef0og6zVdC-_Kzne1W-39" value="" style="rounded=0;whiteSpace=wrap;html=1;strokeWidth=1;fontSize=17;fontColor=#FF0000;" vertex="1" parent="1">
          <mxGeometry x="240" y="580" width="540" height="460" as="geometry" />
        </mxCell>
        <mxCell id="w6ef0og6zVdC-_Kzne1W-40" value="New Resource" style="text;html=1;points=[];align=left;verticalAlign=top;spacingTop=-4;fontSize=20;fontFamily=Verdana;strokeWidth=1;fontStyle=1" vertex="1" parent="1">
          <mxGeometry x="430" y="600" width="60" height="20" as="geometry" />
        </mxCell>
        <mxCell id="w6ef0og6zVdC-_Kzne1W-41" value="" style="verticalLabelPosition=bottom;shadow=0;dashed=0;align=center;html=1;verticalAlign=top;strokeWidth=1;shape=mxgraph.mockup.forms.splitter;strokeColor=#999999;direction=north;fontSize=20;fontColor=#000000;fontFamily=Verdana;" vertex="1" parent="1">
          <mxGeometry x="730" y="640" width="10" height="390" as="geometry" />
        </mxCell>
        <mxCell id="w6ef0og6zVdC-_Kzne1W-5" value="" style="rounded=0;whiteSpace=wrap;html=1;strokeWidth=1;fontSize=17;fontColor=#FF0000;" vertex="1" parent="1">
          <mxGeometry x="240" y="90" width="540" height="460" as="geometry" />
        </mxCell>
        <mxCell id="677b7b8949515195-11" value="New Resource" style="text;html=1;points=[];align=left;verticalAlign=top;spacingTop=-4;fontSize=20;fontFamily=Verdana;strokeWidth=1;fontStyle=1" parent="1" vertex="1">
          <mxGeometry x="430" y="110" width="60" height="20" as="geometry" />
        </mxCell>
        <mxCell id="677b7b8949515195-27" value="&lt;font color=&quot;#ff0000&quot;&gt;*&lt;/font&gt;Resource First Name" style="text;html=1;points=[];align=left;verticalAlign=top;spacingTop=-4;fontSize=14;fontFamily=Verdana;" parent="1" vertex="1">
          <mxGeometry x="280" y="190" width="170" height="20" as="geometry" />
        </mxCell>
        <mxCell id="w6ef0og6zVdC-_Kzne1W-1" value="" style="rounded=1;whiteSpace=wrap;html=1;fontSize=17;fontFamily=Verdana;" vertex="1" parent="1">
          <mxGeometry x="280" y="215" width="160" height="25" as="geometry" />
        </mxCell>
        <mxCell id="w6ef0og6zVdC-_Kzne1W-2" value="&lt;font color=&quot;#ff0000&quot;&gt;*&lt;/font&gt;Resource Last Name" style="text;html=1;points=[];align=left;verticalAlign=top;spacingTop=-4;fontSize=14;fontFamily=Verdana;" vertex="1" parent="1">
          <mxGeometry x="520" y="190" width="170" height="20" as="geometry" />
        </mxCell>
        <mxCell id="w6ef0og6zVdC-_Kzne1W-6" value="Basic Information" style="text;html=1;points=[];align=left;verticalAlign=top;spacingTop=-4;fontSize=14;fontFamily=Verdana;fillColor=#f5f5f5;fontColor=#333333;strokeColor=#666666;" vertex="1" parent="1">
          <mxGeometry x="270" y="150" width="460" height="20" as="geometry" />
        </mxCell>
        <mxCell id="w6ef0og6zVdC-_Kzne1W-7" value="Status Resource" style="text;html=1;points=[];align=left;verticalAlign=top;spacingTop=-4;fontSize=14;fontFamily=Verdana;fillColor=#f5f5f5;fontColor=#333333;strokeColor=#666666;" vertex="1" parent="1">
          <mxGeometry x="270" y="825" width="460" height="20" as="geometry" />
        </mxCell>
        <mxCell id="w6ef0og6zVdC-_Kzne1W-8" value="&lt;font color=&quot;#ff0000&quot;&gt;*&lt;/font&gt;EnterpriseID" style="text;html=1;points=[];align=left;verticalAlign=top;spacingTop=-4;fontSize=14;fontFamily=Verdana;" vertex="1" parent="1">
          <mxGeometry x="280" y="255" width="170" height="20" as="geometry" />
        </mxCell>
        <mxCell id="w6ef0og6zVdC-_Kzne1W-9" value="" style="rounded=1;whiteSpace=wrap;html=1;fontSize=17;fontFamily=Verdana;" vertex="1" parent="1">
          <mxGeometry x="280" y="280" width="160" height="25" as="geometry" />
        </mxCell>
        <mxCell id="w6ef0og6zVdC-_Kzne1W-10" value="&lt;font color=&quot;#ff0000&quot;&gt;*&lt;/font&gt;Personal Number" style="text;html=1;points=[];align=left;verticalAlign=top;spacingTop=-4;fontSize=14;fontFamily=Verdana;" vertex="1" parent="1">
          <mxGeometry x="520" y="255" width="170" height="20" as="geometry" />
        </mxCell>
        <mxCell id="w6ef0og6zVdC-_Kzne1W-12" value="&lt;font color=&quot;#ff0000&quot;&gt;*&lt;/font&gt;Organization" style="text;html=1;points=[];align=left;verticalAlign=top;spacingTop=-4;fontSize=14;fontFamily=Verdana;" vertex="1" parent="1">
          <mxGeometry x="280" y="325" width="170" height="20" as="geometry" />
        </mxCell>
        <mxCell id="w6ef0og6zVdC-_Kzne1W-13" value="" style="strokeWidth=1;shadow=0;dashed=0;align=center;html=1;shape=mxgraph.mockup.forms.comboBox;strokeColor=default;fillColor=default;align=left;fillColor2=#aaddff;mainText=;fontColor=default;fontSize=17;spacingLeft=3;fontFamily=Verdana;" vertex="1" parent="1">
          <mxGeometry x="280" y="350" width="160" height="25" as="geometry" />
        </mxCell>
        <mxCell id="w6ef0og6zVdC-_Kzne1W-14" value="" style="rounded=1;whiteSpace=wrap;html=1;fontSize=17;fontFamily=Verdana;" vertex="1" parent="1">
          <mxGeometry x="520" y="280" width="160" height="25" as="geometry" />
        </mxCell>
        <mxCell id="w6ef0og6zVdC-_Kzne1W-19" value="&lt;font color=&quot;#ff0000&quot;&gt;*&lt;/font&gt;Location" style="text;html=1;points=[];align=left;verticalAlign=top;spacingTop=-4;fontSize=14;fontFamily=Verdana;" vertex="1" parent="1">
          <mxGeometry x="520" y="325" width="170" height="20" as="geometry" />
        </mxCell>
        <mxCell id="w6ef0og6zVdC-_Kzne1W-20" value="" style="strokeWidth=1;shadow=0;dashed=0;align=center;html=1;shape=mxgraph.mockup.forms.comboBox;strokeColor=default;fillColor=default;align=left;fillColor2=#aaddff;mainText=;fontColor=default;fontSize=17;spacingLeft=3;fontFamily=Verdana;" vertex="1" parent="1">
          <mxGeometry x="520" y="350" width="160" height="25" as="geometry" />
        </mxCell>
        <mxCell id="w6ef0og6zVdC-_Kzne1W-21" value="&lt;font color=&quot;#ff0000&quot;&gt;*&lt;/font&gt;Type" style="text;html=1;points=[];align=left;verticalAlign=top;spacingTop=-4;fontSize=14;fontFamily=Verdana;" vertex="1" parent="1">
          <mxGeometry x="280" y="395" width="170" height="20" as="geometry" />
        </mxCell>
        <mxCell id="w6ef0og6zVdC-_Kzne1W-22" value="" style="strokeWidth=1;shadow=0;dashed=0;align=center;html=1;shape=mxgraph.mockup.forms.comboBox;strokeColor=default;fillColor=default;align=left;fillColor2=#aaddff;mainText=;fontColor=default;fontSize=17;spacingLeft=3;fontFamily=Verdana;" vertex="1" parent="1">
          <mxGeometry x="280" y="420" width="160" height="25" as="geometry" />
        </mxCell>
        <mxCell id="w6ef0og6zVdC-_Kzne1W-23" value="&lt;font color=&quot;#ff0000&quot;&gt;*&lt;/font&gt;Profile" style="text;html=1;points=[];align=left;verticalAlign=top;spacingTop=-4;fontSize=14;fontFamily=Verdana;" vertex="1" parent="1">
          <mxGeometry x="520" y="395" width="170" height="20" as="geometry" />
        </mxCell>
        <mxCell id="w6ef0og6zVdC-_Kzne1W-24" value="" style="strokeWidth=1;shadow=0;dashed=0;align=center;html=1;shape=mxgraph.mockup.forms.comboBox;strokeColor=default;fillColor=default;align=left;fillColor2=#aaddff;mainText=;fontColor=default;fontSize=17;spacingLeft=3;fontFamily=Verdana;" vertex="1" parent="1">
          <mxGeometry x="520" y="420" width="160" height="25" as="geometry" />
        </mxCell>
        <mxCell id="w6ef0og6zVdC-_Kzne1W-25" value="&lt;font style=&quot;font-size: 14px;&quot;&gt;&lt;font style=&quot;font-size: 14px;&quot; color=&quot;#ff0000&quot;&gt;*&lt;/font&gt;Career Level Name&amp;nbsp;&lt;/font&gt;" style="text;html=1;points=[];align=left;verticalAlign=top;spacingTop=-4;fontSize=14;fontFamily=Verdana;" vertex="1" parent="1">
          <mxGeometry x="280" y="460" width="300" height="20" as="geometry" />
        </mxCell>
        <mxCell id="w6ef0og6zVdC-_Kzne1W-26" value="" style="strokeWidth=1;shadow=0;dashed=0;align=center;html=1;shape=mxgraph.mockup.forms.comboBox;strokeColor=default;fillColor=default;align=left;fillColor2=#aaddff;mainText=;fontColor=default;fontSize=17;spacingLeft=3;fontFamily=Verdana;" vertex="1" parent="1">
          <mxGeometry x="280" y="486" width="160" height="25" as="geometry" />
        </mxCell>
        <mxCell id="w6ef0og6zVdC-_Kzne1W-27" value="" style="verticalLabelPosition=bottom;shadow=0;dashed=0;align=center;html=1;verticalAlign=top;strokeWidth=1;shape=mxgraph.mockup.forms.splitter;strokeColor=#999999;direction=north;fontSize=20;fontColor=#000000;fontFamily=Verdana;" vertex="1" parent="1">
          <mxGeometry x="730" y="150" width="10" height="390" as="geometry" />
        </mxCell>
        <mxCell id="w6ef0og6zVdC-_Kzne1W-29" value="Actual Bill Code&lt;span style=&quot;font-size: 14px;&quot;&gt;&amp;nbsp;&lt;/span&gt;" style="text;html=1;points=[];align=left;verticalAlign=top;spacingTop=-4;fontSize=14;fontFamily=Verdana;" vertex="1" parent="1">
          <mxGeometry x="520" y="466" width="300" height="20" as="geometry" />
        </mxCell>
        <UserObject label="(Formula)&amp;nbsp;&lt;span style=&quot;font-size: 12px;&quot;&gt;Calculated&lt;br style=&quot;font-size: 12px;&quot;&gt;based on Career Level Resource&lt;/span&gt;" placeholders="1" name="Variable" id="w6ef0og6zVdC-_Kzne1W-30">
          <mxCell style="text;html=1;strokeColor=#666666;fillColor=#f5f5f5;align=left;verticalAlign=middle;whiteSpace=wrap;overflow=hidden;strokeWidth=1;fontSize=12;fontColor=#333333;fontStyle=0;fontFamily=Verdana;" vertex="1" parent="1">
            <mxGeometry x="510" y="486" width="200" height="44" as="geometry" />
          </mxCell>
        </UserObject>
        <mxCell id="w6ef0og6zVdC-_Kzne1W-32" value="" style="rounded=1;whiteSpace=wrap;html=1;fontSize=17;fontFamily=Verdana;" vertex="1" parent="1">
          <mxGeometry x="520" y="215" width="160" height="25" as="geometry" />
        </mxCell>
        <mxCell id="w6ef0og6zVdC-_Kzne1W-35" value="&lt;font style=&quot;font-size: 14px;&quot;&gt;Actual &lt;font style=&quot;font-size: 14px;&quot;&gt;Cost&lt;/font&gt;&lt;/font&gt;" style="text;html=1;points=[];align=left;verticalAlign=top;spacingTop=-4;fontSize=14;fontFamily=Verdana;" vertex="1" parent="1">
          <mxGeometry x="270" y="650" width="300" height="20" as="geometry" />
        </mxCell>
        <UserObject label="(Formula)&amp;nbsp;&lt;span style=&quot;font-size: 12px;&quot;&gt;Calculated&lt;br style=&quot;font-size: 12px;&quot;&gt;based on Career Level Resource&lt;/span&gt;" placeholders="1" name="Variable" id="w6ef0og6zVdC-_Kzne1W-38">
          <mxCell style="text;html=1;strokeColor=#666666;fillColor=#f5f5f5;align=left;verticalAlign=middle;whiteSpace=wrap;overflow=hidden;strokeWidth=1;fontSize=12;fontColor=#333333;fontStyle=0;fontFamily=Verdana;" vertex="1" parent="1">
            <mxGeometry x="270" y="670" width="200" height="44" as="geometry" />
          </mxCell>
        </UserObject>
        <mxCell id="w6ef0og6zVdC-_Kzne1W-42" value="&lt;font style=&quot;font-size: 14px;&quot;&gt;&lt;font style=&quot;font-size: 14px;&quot; color=&quot;#ff0000&quot;&gt;*&lt;/font&gt;Actual Assignment Type&amp;nbsp;&lt;/font&gt;" style="text;html=1;points=[];align=left;verticalAlign=top;spacingTop=-4;fontSize=14;fontFamily=Verdana;" vertex="1" parent="1">
          <mxGeometry x="540" y="650" width="300" height="20" as="geometry" />
        </mxCell>
        <mxCell id="w6ef0og6zVdC-_Kzne1W-43" value="" style="strokeWidth=1;shadow=0;dashed=0;align=center;html=1;shape=mxgraph.mockup.forms.comboBox;strokeColor=default;fillColor=default;align=left;fillColor2=#aaddff;mainText=;fontColor=default;fontSize=17;spacingLeft=3;fontFamily=Verdana;" vertex="1" parent="1">
          <mxGeometry x="540" y="676" width="160" height="25" as="geometry" />
        </mxCell>
        <mxCell id="w6ef0og6zVdC-_Kzne1W-44" value="&lt;font style=&quot;font-size: 14px;&quot;&gt;&lt;font style=&quot;font-size: 14px;&quot; color=&quot;#ff0000&quot;&gt;*&lt;/font&gt;Actual Assignment Type&amp;nbsp;&lt;/font&gt;" style="text;html=1;points=[];align=left;verticalAlign=top;spacingTop=-4;fontSize=14;fontFamily=Verdana;" vertex="1" parent="1">
          <mxGeometry x="280" y="730" width="300" height="20" as="geometry" />
        </mxCell>
        <mxCell id="w6ef0og6zVdC-_Kzne1W-45" value="" style="strokeWidth=1;shadow=0;dashed=0;align=center;html=1;shape=mxgraph.mockup.forms.comboBox;strokeColor=default;fillColor=default;align=left;fillColor2=#aaddff;mainText=;fontColor=default;fontSize=17;spacingLeft=3;fontFamily=Verdana;" vertex="1" parent="1">
          <mxGeometry x="280" y="756" width="160" height="25" as="geometry" />
        </mxCell>
      </root>
    </mxGraphModel>
  </diagram>
</mxfile>
